<?xml version="1.0" encoding="UTF-8"?>
<svg id="Layer_2" data-name="Layer 2" xmlns="http://www.w3.org/2000/svg" viewBox="0 0 1919.99 725.27">
  <defs>
    <style>
      .cls-1 {
        stroke-width: 0px;
      }
    </style>
  </defs>
  <g>
    <polygon class="cls-1" points="1871.15 656.26 1726.29 656.26 1731.33 633.13 1855.33 633.13 1867.53 584.84 1746.32 584.84 1752.16 560.9 1896.87 560.9 1913.94 493 1694.16 493 1666.66 516.25 1616.84 702.01 1632.5 724.68 1854.31 724.68 1871.15 656.26"/>
    <polygon class="cls-1" points="1643.57 493.58 1421.53 492.68 1394.58 515.75 1371.41 607.09 1390.06 633.51 1508.79 633.51 1503.65 656.6 1357.08 656.6 1339.67 724.81 1560.38 724.81 1587.81 701.98 1615.67 595.03 1604.81 584.55 1473.14 584.55 1478.42 560.41 1625.99 560.41 1643.57 493.58"/>
    <polygon class="cls-1" points="1152.81 489.49 1090.85 724.69 1308.99 724.69 1325.85 656.39 1206.54 656.39 1252.5 489.49 1152.81 489.49"/>
    <polygon class="cls-1" points="838.07 721.79 1036.43 721.79 1065.74 698.63 1120.29 489.68 1025.37 489.68 980.21 652.62 931.33 652.62 974.18 489.49 878.95 489.49 822.99 701.82 838.07 721.79"/>
    <path class="cls-1" d="m825.99,489.49l-220,3.27-62.12,232.01h97.16l18.25-67.83h119.97l33.07-24.95,31.7-117.14-18.02-25.36Zm-97.34,94.97h-49.67l5.11-22.99h51l-6.43,22.99Z"/>
    <polyline class="cls-1" points="177.46 521.71 124.91 724.68 219.95 724.68 266.2 561.82 314.64 561.82 270.57 724.96 367.49 724.96 411.23 560.98 461.01 561.86 417.48 724.73 514.23 724.73 570.25 514.71 554.51 492.76 209.44 492.76"/>
    <path class="cls-1" d="m0,725.27h93.88c21.02-77.93,41.71-154.65,62.58-232.05H62.83"/>
  </g>
  <path class="cls-1" d="m1919.99.45h-374.2c-14.87,10.86-52.27,41.87-52.27,41.87l-40.11,160.67,28.34,36.93,208.72.35-12.08,40.75h-248.42l-31.34,119.25h373.48l51.57-40.44,47.32-181.4-13.41-17.4h-230.46c3.4-14.58,7.19-28.02,12.13-41.04h247.88c12.49-38.85,21.68-78.6,32.87-119.55Z"/>
  <path class="cls-1" d="m1455.71,0h-374.2c-14.87,10.86-52.27,41.87-52.27,41.87l-40.11,160.67,28.34,36.93,208.72.35-12.08,40.75h-248.42l-31.34,119.25h373.48l51.57-40.44,47.32-181.4-13.41-17.4h-230.46c3.4-14.58,7.19-28.02,12.13-41.04h247.88c12.49-38.85,21.68-78.6,32.87-119.55Z"/>
  <path class="cls-1" d="m950.24.05h-336l-50.72,43.65-94.56,356.2h413.59l96.66-362.13L950.24.05Zm-33.48,204.67h-38.64l-16.7,21.39-26.64-118.71-35.58,190.05-34.8-105.64-8.85,13h-52.27l-18.84,19.16-22.31-119.64-37.31,199.58-31.66-112.6-12.59,13.91h-38.13l.59-6.84,33.9-.18,20.12-24.08,26.68,92.55,38.63-204.93,26.87,147,11-11.24,48.68-.15,19.07-25.53,28.76,87.27,39.12-200.02,29.32,151.96,11.48-13.43,40.1.19v6.94Z"/>
  <path class="cls-1" d="m513.76,38L484.2.32H110.07L4.38,399.99h370.21l56.29-49.54,28.55-111.3-30.88-39.41,52.91-41.74,32.3-120.01Zm-230.54,242.26h-84.52l11.27-40.19h84.71l-11.45,40.19Zm30.97-119.88h-82.29l8.94-40.14h84.07l-10.72,40.14Z"/>
</svg>