<svg width="150" height="68" viewBox="0 0 150 68" fill="#a6adba" xmlns="http://www.w3.org/2000/svg">
    <path
        d="M11.3678 64.4973C6.92842 64.4973 0 65.3558 0 65.3558C0 65.3558 6.92842 66.2143 11.3678 66.2143C15.8073 66.2143 22.7357 65.3558 22.7357 65.3558C22.7357 65.3558 15.8073 64.4973 11.3678 64.4973Z"
    />
    <path
        d="M25.6053 67.9313V64.1745L25.4722 63.4808L25.6053 63.0687H27.7347C28.0585 63.0687 28.3491 63.1213 28.6064 63.2266C28.8681 63.3274 29.0744 63.5014 29.2252 63.7486C29.3805 63.9913 29.4581 64.3278 29.4581 64.7582C29.4581 65.1886 29.3761 65.5298 29.2119 65.7816C29.0478 66.0288 28.8193 66.2051 28.5265 66.3104C28.2382 66.4158 27.9077 66.4684 27.535 66.4684H26.8031V66.8255L26.8696 67.5124L26.8031 67.9313H25.6053ZM26.8031 65.3901H27.4552C27.6859 65.3901 27.87 65.3466 28.0075 65.2596C28.145 65.168 28.2138 65.0009 28.2138 64.7582C28.2138 64.5888 28.1805 64.4629 28.114 64.3805C28.0474 64.2935 27.9543 64.2363 27.8345 64.2088C27.7191 64.1813 27.5838 64.1676 27.4286 64.1676H26.7365L26.8031 65.3901Z"
    />
    <path
        d="M30.3231 67.9313V64.1745L30.19 63.4808L30.3231 63.0687H32.4525C32.7763 63.0687 33.0669 63.1213 33.3242 63.2266C33.5859 63.3274 33.7922 63.5014 33.9431 63.7486C34.0983 63.9913 34.176 64.3278 34.176 64.7582C34.176 65.1474 34.1072 65.4634 33.9697 65.706C33.8322 65.9441 33.6414 66.1227 33.3974 66.2418L33.464 66.3173L34.1227 67.169L34.502 67.5192V67.9313H33.0048L32.0732 66.4684H31.5209V66.8255L31.5874 67.5124L31.5209 67.9313H30.3231ZM31.5209 65.3901H32.173C32.4037 65.3901 32.5878 65.3466 32.7253 65.2596C32.8628 65.168 32.9316 65.0009 32.9316 64.7582C32.9316 64.5888 32.8983 64.4629 32.8318 64.3805C32.7652 64.2935 32.6721 64.2363 32.5523 64.2088C32.437 64.1813 32.3017 64.1676 32.1464 64.1676H31.4543L31.5209 65.3901Z"
    />
    <path
        d="M37.0241 68C36.7402 68 36.4629 67.9657 36.1923 67.897C35.9261 67.8237 35.6843 67.6955 35.467 67.5124C35.254 67.3292 35.0832 67.0751 34.9546 66.75C34.8304 66.4249 34.7683 66.0082 34.7683 65.5C34.7683 64.9918 34.8304 64.5751 34.9546 64.25C35.0832 63.9249 35.254 63.6708 35.467 63.4876C35.6843 63.3045 35.9261 63.1786 36.1923 63.1099C36.4629 63.0366 36.7402 63 37.0241 63C37.308 63 37.583 63.0366 37.8492 63.1099C38.1198 63.1831 38.3616 63.3114 38.5745 63.4945C38.7919 63.6777 38.9627 63.9318 39.0869 64.2569C39.2156 64.582 39.2799 64.9963 39.2799 65.5C39.2799 66.0037 39.2156 66.418 39.0869 66.7431C38.9627 67.0682 38.7919 67.3223 38.5745 67.5055C38.3616 67.6886 38.1198 67.8168 37.8492 67.8901C37.583 67.9634 37.308 68 37.0241 68ZM37.0241 66.8324C37.3524 66.8324 37.6008 66.7317 37.7694 66.5302C37.9379 66.3288 38.0222 65.9853 38.0222 65.5C38.0222 65.0147 37.9379 64.6712 37.7694 64.4698C37.6008 64.2683 37.3524 64.1676 37.0241 64.1676C36.7002 64.1676 36.454 64.2706 36.2854 64.4766C36.1169 64.6827 36.0326 65.0238 36.0326 65.5C36.0326 65.9762 36.1169 66.3173 36.2854 66.5234C36.454 66.7294 36.7002 66.8324 37.0241 66.8324Z"
    />
    <path
        d="M40.9454 67.9313L39.7476 64.1607L39.5479 63.4808V63.0687H40.8123L41.7505 66.6813H41.8836L42.8086 63.0687H44.0596V63.4808L43.86 64.1607L42.6688 67.9313H40.9454Z"
    />
    <path d="M44.657 67.9313V64.1676L44.5904 63.4808L44.657 63.0687H45.8614V67.9313H44.657Z"
    />
    <path
        d="M46.79 67.9313V64.1745L46.6569 63.4876L46.79 63.0687H48.773C49.0924 63.0687 49.3985 63.1007 49.6913 63.1648C49.9885 63.2244 50.2525 63.3388 50.4832 63.5082C50.7183 63.6777 50.9024 63.9203 51.0355 64.2363C51.173 64.5522 51.2418 64.962 51.2418 65.4657C51.2418 65.9693 51.173 66.3837 51.0355 66.7088C50.8979 67.0293 50.7116 67.2788 50.4765 67.4574C50.2414 67.636 49.9752 67.7596 49.678 67.8283C49.3852 67.897 49.0835 67.9313 48.773 67.9313H46.79ZM48.0011 66.8324H48.773C49.1634 66.8324 49.4628 66.7271 49.6713 66.5165C49.8798 66.3013 49.9841 65.951 49.9841 65.4657C49.9841 64.9803 49.8776 64.6438 49.6647 64.456C49.4562 64.2637 49.159 64.1676 48.773 64.1676H48.0011V66.8324Z"
    />
    <path d="M51.9741 67.9313V64.1676L51.9076 63.4808L51.9741 63.0687H53.1786V67.9313H51.9741Z"
    />
    <path
        d="M54.1072 67.9313V64.1745L53.9741 63.4876L54.1072 63.0756H55.1785L56.5227 64.9437L56.8421 65.5137H56.9087V63.0756H58.1663V63.4876L58.0998 64.1745V67.9313H57.0551L55.3848 65.5137H55.3183V65.9258L55.3848 67.9313H54.1072Z"
    />
    <path
        d="M61.3538 68C61.0122 68 60.6883 67.9657 60.3822 67.897C60.0806 67.8237 59.8122 67.6955 59.577 67.5124C59.3464 67.3292 59.1645 67.0751 59.0314 66.75C58.8983 66.4249 58.8318 66.0082 58.8318 65.5C58.8318 65.0101 58.9027 64.6049 59.0447 64.2843C59.1867 63.9592 59.3752 63.7028 59.6103 63.5151C59.8499 63.3274 60.1138 63.1946 60.4022 63.1168C60.695 63.0389 60.99 63 61.2872 63C61.5046 63 61.6931 63.0114 61.8528 63.0343C62.0125 63.0572 62.1656 63.087 62.312 63.1236L63.217 63.6662L62.7512 64.7308L61.2806 64.1951C61.0676 64.1951 60.8702 64.2385 60.6883 64.3255C60.5109 64.4125 60.3667 64.5522 60.2558 64.7445C60.1493 64.9322 60.0961 65.1864 60.0961 65.5069C60.0961 66.0243 60.207 66.3883 60.4288 66.5989C60.6551 66.8049 60.9634 66.908 61.3538 66.908C61.5534 66.908 61.7087 66.8988 61.8196 66.8805C61.9349 66.8576 62.0236 66.8393 62.0857 66.8255V66.3036H61.2406V65.2871H63.3567L63.4299 65.6992L63.2835 66.2692V67.7115C63.2347 67.7299 63.1238 67.7619 62.9508 67.8077C62.7822 67.8535 62.5604 67.897 62.2854 67.9382C62.0148 67.9794 61.7042 68 61.3538 68Z"
    />
    <path
        d="M65.8303 67.9313V64.1676L65.6972 63.4808L65.8303 63.0687H68.0927C68.594 63.0687 68.9955 63.1648 69.2972 63.3571C69.5988 63.5495 69.7497 63.8608 69.7497 64.2912C69.7497 64.5064 69.7142 64.701 69.6432 64.875C69.5722 65.049 69.4702 65.1841 69.3371 65.2802C69.6388 65.381 69.8606 65.5343 70.0025 65.7404C70.1445 65.9464 70.2155 66.1914 70.2155 66.4753C70.2155 66.9744 70.0735 67.343 69.7896 67.581C69.5101 67.8146 69.0998 67.9313 68.5585 67.9313H65.8303ZM67.028 64.9574H68.0794C68.2303 64.9574 68.339 64.9208 68.4055 64.8475C68.472 64.7743 68.5053 64.6781 68.5053 64.5591C68.5053 64.408 68.4565 64.3049 68.3589 64.25C68.2613 64.1951 68.146 64.1676 68.0129 64.1676H67.028V64.9574ZM67.028 66.8324H68.3589C68.5186 66.8324 68.6362 66.8118 68.7116 66.7706C68.7914 66.7294 68.8425 66.6767 68.8646 66.6126C68.8913 66.5485 68.9046 66.4821 68.9046 66.4135C68.9046 66.2944 68.8624 66.1937 68.7781 66.1113C68.6983 66.0243 68.5807 65.9808 68.4255 65.9808H67.028V66.8324Z"
    />
    <path
        d="M70.4787 67.9313L70.7981 66.7706V65.8984L71.2905 65.6923L72.1556 63.0756H73.8791L74.9504 66.1525L75.4628 67.1277V67.9313H74.285L73.9523 66.8324H72.0158L71.7297 67.9313H70.4787ZM72.455 65.7747H73.5863L73.0805 64.2019H72.9408L72.455 65.7747Z"
    />
    <path
        d="M77.5892 68C77.3452 68 77.1145 67.9771 76.8972 67.9313C76.6798 67.881 76.4912 67.8214 76.3315 67.7527C76.1718 67.6841 76.0543 67.62 75.9789 67.5604V66.331C76.1918 66.4547 76.4602 66.5714 76.784 66.6813C77.1079 66.7866 77.4672 66.8393 77.862 66.8393C78.0218 66.8393 78.1393 66.8187 78.2147 66.7775C78.2946 66.7317 78.3345 66.6538 78.3345 66.544C78.3345 66.4249 78.2458 66.3265 78.0683 66.2486C77.8953 66.1662 77.6203 66.0655 77.2432 65.9464C76.9504 65.8503 76.6998 65.745 76.4912 65.6305C76.2872 65.5114 76.1297 65.3649 76.0188 65.1909C75.9123 65.0124 75.8591 64.7857 75.8591 64.511C75.8591 64.2271 75.9301 63.9707 76.072 63.7418C76.214 63.5128 76.4358 63.332 76.7375 63.1992C77.0391 63.0664 77.4251 63 77.8953 63C78.0373 63 78.1881 63.0069 78.3478 63.0206C78.5119 63.0298 78.6428 63.0435 78.7404 63.0618L79.4924 63.6319L79.2328 64.4698L77.6558 64.0234C77.4739 64.0234 77.3386 64.0623 77.2498 64.1401C77.1656 64.2179 77.1234 64.3118 77.1234 64.4217C77.1234 64.5545 77.1966 64.6598 77.343 64.7376C77.4894 64.8155 77.7001 64.8933 77.9752 64.9712C78.4099 65.0948 78.7471 65.2321 78.9866 65.3832C79.2262 65.5343 79.3948 65.706 79.4924 65.8984C79.59 66.0861 79.6388 66.299 79.6388 66.5371C79.6388 66.9766 79.468 67.3315 79.1264 67.6016C78.7848 67.8672 78.2724 68 77.5892 68Z"
    />
    <path
        d="M87.9476 68C87.7036 68 87.473 67.9771 87.2556 67.9313C87.0382 67.881 86.8497 67.8214 86.69 67.7527C86.5303 67.6841 86.4127 67.62 86.3373 67.5604V66.331C86.5502 66.4547 86.8186 66.5714 87.1425 66.6813C87.4663 66.7866 87.8256 66.8393 88.2205 66.8393C88.3802 66.8393 88.4977 66.8187 88.5732 66.7775C88.653 66.7317 88.6929 66.6538 88.6929 66.544C88.6929 66.4249 88.6042 66.3265 88.4268 66.2486C88.2537 66.1662 87.9787 66.0655 87.6016 65.9464C87.3088 65.8503 87.0582 65.745 86.8497 65.6305C86.6456 65.5114 86.4881 65.3649 86.3772 65.1909C86.2707 65.0124 86.2175 64.7857 86.2175 64.511C86.2175 64.2271 86.2885 63.9707 86.4304 63.7418C86.5724 63.5128 86.7942 63.332 87.0959 63.1992C87.3975 63.0664 87.7835 63 88.2537 63C88.3957 63 88.5465 63.0069 88.7062 63.0206C88.8704 63.0298 89.0012 63.0435 89.0988 63.0618L89.8508 63.6319L89.5913 64.4698L88.0142 64.0234C87.8323 64.0234 87.697 64.0623 87.6083 64.1401C87.524 64.2179 87.4818 64.3118 87.4818 64.4217C87.4818 64.5545 87.555 64.6598 87.7014 64.7376C87.8478 64.8155 88.0585 64.8933 88.3336 64.9712C88.7683 65.0948 89.1055 65.2321 89.3451 65.3832C89.5846 65.5343 89.7532 65.706 89.8508 65.8984C89.9484 66.0861 89.9972 66.299 89.9972 66.5371C89.9972 66.9766 89.8264 67.3315 89.4848 67.6016C89.1432 67.8672 88.6308 68 87.9476 68Z"
    />
    <path d="M90.7305 67.9313V64.1676L90.664 63.4808L90.7305 63.0687H91.9349V67.9313H90.7305Z"
    />
    <path
        d="M92.8635 67.9313V64.1745L92.7304 63.4876L92.8635 63.0756H93.9349L95.2791 64.9437L95.5985 65.5137H95.665V63.0756H96.9227V63.4876L96.8561 64.1745V67.9313H95.8114L94.1412 65.5137H94.0746V65.9258L94.1412 67.9313H92.8635Z"
    />
    <path
        d="M99.977 68C99.6754 68 99.3826 67.9657 99.0986 67.897C98.8147 67.8237 98.5574 67.6955 98.3268 67.5124C98.1005 67.3292 97.9208 67.0751 97.7878 66.75C97.6547 66.4249 97.5881 66.0082 97.5881 65.5C97.5881 65.0284 97.6547 64.6323 97.7878 64.3118C97.9208 63.9913 98.0983 63.7349 98.3201 63.5426C98.5419 63.3503 98.7837 63.2129 99.0454 63.1305C99.3116 63.0435 99.5778 63 99.8439 63C100.07 63 100.29 63.0183 100.503 63.0549C100.72 63.0916 100.878 63.1328 100.975 63.1786L101.714 63.8036L101.115 64.7995L99.977 64.1951C99.6621 64.1951 99.3959 64.3027 99.1785 64.5179C98.9611 64.7285 98.8524 65.0559 98.8524 65.5C98.8524 65.8159 98.9057 66.0723 99.0122 66.2692C99.1231 66.4661 99.2739 66.6103 99.4646 66.7019C99.6554 66.7935 99.8728 66.8393 100.117 66.8393C100.374 66.8393 100.594 66.8187 100.776 66.7775C100.957 66.7317 101.117 66.679 101.255 66.6195C101.392 66.5554 101.523 66.4936 101.647 66.4341V67.5879C101.492 67.6886 101.286 67.7825 101.028 67.8695C100.771 67.9565 100.421 68 99.977 68Z"
    />
    <path
        d="M102.475 67.9313L102.342 67.5192L102.475 66.8324V63.0687H105.769L106.101 63.2747L105.662 64.2363L105.063 64.1676H103.672V64.9231H105.462V65.9876H104.677L103.672 65.919V66.8324H105.662L106.454 67.4918L106.061 67.9313H102.475Z"
    />
    <path
        d="M108.388 67.9313V66.9766C108.388 66.9766 108.431 66.9492 108.515 66.8942C108.599 66.8393 108.708 66.7637 108.841 66.6676C108.974 66.5714 109.118 66.4638 109.273 66.3448C109.429 66.2257 109.575 66.1021 109.713 65.9739C109.912 65.7953 110.079 65.6374 110.212 65.5C110.345 65.3581 110.445 65.2184 110.511 65.081C110.578 64.9437 110.611 64.7857 110.611 64.6071C110.611 64.3141 110.422 64.1676 110.045 64.1676C109.859 64.1676 109.671 64.1928 109.48 64.2431C109.293 64.2889 109.12 64.3439 108.961 64.408C108.805 64.4721 108.683 64.527 108.595 64.5728V63.4052C108.723 63.332 108.93 63.2495 109.214 63.158C109.497 63.0664 109.844 63.0206 110.252 63.0206C110.828 63.0206 111.25 63.1465 111.516 63.3984C111.782 63.6456 111.915 64.0211 111.915 64.5247C111.915 64.7857 111.869 65.0192 111.775 65.2253C111.682 65.4313 111.563 65.6168 111.416 65.7816C111.27 65.9418 111.112 66.0815 110.944 66.2005C110.78 66.3196 110.622 66.4203 110.471 66.5027C110.32 66.5806 110.196 66.6447 110.099 66.6951L110.132 66.8324L111.915 66.6951V67.9313H108.388Z"
    />
    <path
        d="M114.433 68C114.056 68 113.716 67.9199 113.415 67.7596C113.118 67.5994 112.882 67.3384 112.709 66.9766C112.536 66.6103 112.45 66.1181 112.45 65.5C112.45 64.8864 112.536 64.3988 112.709 64.0371C112.882 63.6708 113.118 63.4075 113.415 63.2473C113.716 63.0824 114.056 63 114.433 63C114.814 63 115.154 63.0824 115.451 63.2473C115.748 63.4121 115.983 63.6777 116.156 64.044C116.329 64.4057 116.416 64.891 116.416 65.5C116.416 66.109 116.329 66.5966 116.156 66.9629C115.983 67.3292 115.748 67.5948 115.451 67.7596C115.154 67.9199 114.814 68 114.433 68ZM114.433 66.8049C114.672 66.8049 114.852 66.7088 114.972 66.5165C115.096 66.3242 115.158 65.9853 115.158 65.5C115.158 65.0147 115.096 64.6758 114.972 64.4835C114.852 64.2912 114.672 64.1951 114.433 64.1951C114.198 64.1951 114.018 64.2935 113.894 64.4904C113.77 64.6873 113.708 65.0238 113.708 65.5C113.708 65.9762 113.77 66.3127 113.894 66.5096C114.018 66.7065 114.198 66.8049 114.433 66.8049Z"
    />
    <path
        d="M116.947 67.9313V66.9766C116.947 66.9766 116.989 66.9492 117.073 66.8942C117.158 66.8393 117.266 66.7637 117.399 66.6676C117.532 66.5714 117.677 66.4638 117.832 66.3448C117.987 66.2257 118.133 66.1021 118.271 65.9739C118.471 65.7953 118.637 65.6374 118.77 65.5C118.903 65.3581 119.003 65.2184 119.07 65.081C119.136 64.9437 119.169 64.7857 119.169 64.6071C119.169 64.3141 118.981 64.1676 118.604 64.1676C118.417 64.1676 118.229 64.1928 118.038 64.2431C117.852 64.2889 117.679 64.3439 117.519 64.408C117.364 64.4721 117.242 64.527 117.153 64.5728V63.4052C117.282 63.332 117.488 63.2495 117.772 63.158C118.056 63.0664 118.402 63.0206 118.81 63.0206C119.387 63.0206 119.808 63.1465 120.074 63.3984C120.341 63.6456 120.474 64.0211 120.474 64.5247C120.474 64.7857 120.427 65.0192 120.334 65.2253C120.241 65.4313 120.121 65.6168 119.975 65.7816C119.828 65.9418 119.671 66.0815 119.502 66.2005C119.338 66.3196 119.18 66.4203 119.03 66.5027C118.879 66.5806 118.755 66.6447 118.657 66.6951L118.69 66.8324L120.474 66.6951V67.9313H116.947Z"
    />
    <path
        d="M122.605 68C122.463 68 122.328 67.9954 122.199 67.9863C122.075 67.9771 121.958 67.9634 121.847 67.9451L121.008 67.5536L121.341 66.4615L122.672 66.8393C122.929 66.8393 123.116 66.7958 123.231 66.7088C123.346 66.6172 123.404 66.5027 123.404 66.3654C123.404 66.2418 123.362 66.1548 123.277 66.1044C123.193 66.054 123.051 66.0288 122.852 66.0288H122.026V64.9231H122.772C122.923 64.9231 123.042 64.891 123.131 64.8269C123.224 64.7628 123.271 64.6735 123.271 64.5591C123.271 64.4125 123.229 64.3118 123.144 64.2569C123.06 64.1973 122.94 64.1676 122.785 64.1676C122.563 64.1676 122.35 64.1905 122.146 64.2363C121.942 64.2821 121.76 64.337 121.601 64.4011C121.441 64.4606 121.31 64.5133 121.208 64.5591V63.3915C121.297 63.3457 121.423 63.293 121.587 63.2335C121.751 63.174 121.947 63.1213 122.173 63.0756C122.403 63.0298 122.654 63.0069 122.925 63.0069C123.426 63.0069 123.805 63.1213 124.063 63.3503C124.324 63.5746 124.455 63.8929 124.455 64.3049C124.455 64.543 124.406 64.7399 124.309 64.8956C124.216 65.0467 124.114 65.168 124.003 65.2596C124.189 65.3466 124.344 65.4771 124.469 65.6511C124.597 65.8205 124.662 66.0563 124.662 66.3585C124.662 67.4528 123.976 68 122.605 68Z"
    />
    <path
        d="M138.632 64.4973C134.193 64.4973 127.264 65.3558 127.264 65.3558C127.264 65.3558 134.193 66.2143 138.632 66.2143C143.072 66.2143 150 65.3558 150 65.3558C150 65.3558 143.072 64.4973 138.632 64.4973Z"
    />
    <path
        d="M145.235 50.6716H134.069L134.457 48.8856H144.016L144.956 45.157H135.613L136.063 43.3086H147.218L148.534 38.0658H131.592L129.472 39.861L125.632 54.204L126.839 55.9544H143.937L145.235 50.6716Z"
    />
    <path
        d="M127.693 38.1106L110.577 38.0411L108.499 39.8224L106.713 46.875L108.151 48.915H117.303L116.907 50.6978H105.609L104.267 55.9645H121.28L123.394 54.2017L125.542 45.9438L124.705 45.1346H114.555L114.962 43.2707H126.337L127.693 38.1106Z"
    />
    <path
        d="M89.8629 37.7948L85.0868 55.9552H101.902L103.201 50.6816H94.0046L97.5474 37.7948H89.8629Z"
    />
    <path
        d="M65.6016 55.7313H80.8919L83.1512 53.9431L87.3561 37.8095H80.0394L76.5583 50.3905H72.7904L76.0934 37.7948H68.7528L64.4391 54.1894L65.6016 55.7313Z"
    />
    <path
        d="M64.6704 37.7948L47.712 38.0473L42.9235 55.9614H50.413L51.8198 50.7241H61.0675L63.6167 48.7976L66.0602 39.7529L64.6704 37.7948ZM57.1671 45.1277H53.3383L53.7322 43.3526H57.6635L57.1671 45.1277Z"
    />
    <path
        d="M14.6793 40.2826L10.6285 55.9544H17.9546L21.5197 43.3796H25.2536L21.8565 55.9761H29.3275L32.6991 43.3147L36.5364 43.3827L33.1809 55.9583H40.6388L44.957 39.7421L43.7437 38.0473H17.1444"
    />
    <path d="M1 56H8.23662C9.85692 49.9828 11.4518 44.0591 13.0605 38.0828H5.84317" />
    <path
        d="M149 0.0347382H120.155C119.009 0.873267 116.126 3.26763 116.126 3.26763L113.034 15.6734L115.219 18.5248L131.308 18.5519L130.376 21.6983H111.227L108.812 30.9059H137.601L141.576 27.7834L145.224 13.777L144.19 12.4335H126.425C126.687 11.3078 126.979 10.27 127.36 9.26474H146.468C147.43 6.26502 148.139 3.19582 149.001 0.0339661L149 0.0347382Z"
    />
    <path
        d="M113.212 -6.07199e-06H84.3668C83.2206 0.838523 80.3377 3.23289 80.3377 3.23289L77.2458 15.6386L79.4304 18.4901L95.5193 18.5171L94.5881 21.6635H75.439L73.0232 30.8711H101.812L105.788 27.7487L109.435 13.7423L108.402 12.3988H90.6368C90.8989 11.273 91.1911 10.2353 91.5719 9.22999H110.679C111.642 6.23028 112.351 3.16108 113.213 -0.000778198L113.212 -6.07199e-06Z"
    />
    <path fill-rule="evenodd" clip-rule="evenodd"
        d="M48.348 -0.000778198H74.2481L76.4812 2.90321L69.0302 30.8685H56.4817L59.4599 21.6239L52.6273 21.6239L49.7483 30.8685L37.1492 30.8685L44.4383 3.35975L48.348 -0.000778198ZM52.3602 11.5936L52.4276 11.3037C52.4525 11.1967 52.5343 11.1227 52.6275 11.1227H55.6079L57.2513 5.15547C57.3184 4.91202 57.6141 4.93627 57.6525 5.18837L58.6024 11.2772L59.2435 14.7548L60.297 11.5721L60.3752 11.2928C60.4031 11.1913 60.4826 11.1227 60.5723 11.1227H63.5727L64.2263 8.67674C64.2896 8.43954 64.5746 8.45041 64.6251 8.69194L65.1757 11.3253L65.482 12.5646L65.797 11.5762L65.8724 11.2962C65.9005 11.192 65.9829 11.1223 66.0748 11.1249L72.9619 11.4418L72.9489 11.4424L72.959 11.4427L72.9238 11.4439L72.9672 11.4456L72.9543 11.4461L72.9643 11.4464L72.9207 11.4476L72.4524 11.4681L66.2482 11.7889L65.6675 14.1572C65.6088 14.397 65.3223 14.3931 65.268 14.1518L64.6453 11.3329L64.4628 10.6338L64.215 11.6032L64.1936 11.7022C64.1712 11.8132 64.0879 11.8916 63.9919 11.8916H61.0381L59.3057 17.7823C59.2352 18.0221 58.9431 17.994 58.9057 17.7439L57.901 11.2764L57.3482 8.26596L56.2487 11.5715L56.2069 11.7202C56.1794 11.8223 56.0995 11.8916 56.0094 11.8916H53.0896L52.3666 14.2583C52.2968 14.4871 52.0203 14.4701 51.9706 14.2339L51.3588 11.3262L51.1103 10.3265L50.7199 11.5505C50.7184 11.5553 50.7167 11.56 50.7149 11.5647L50.7146 11.5658C50.6866 11.6695 50.6049 11.7391 50.5134 11.7371L43.6153 11.4663L50.334 11.1252L50.9143 8.74613C50.9728 8.50627 51.2592 8.50967 51.3137 8.75088L51.8974 11.3358L52.1603 12.3209L52.3602 11.5936Z"
    />
    <path
        d="M40.6026 2.93408L38.324 0.024704H9.48463L1.33765 30.8843H29.8748L34.2139 27.0592L36.4146 18.4654L34.0343 15.4224L38.1128 12.1996L40.6026 2.93408ZM22.8317 21.6396H16.3166L17.1853 18.5364H23.7151L22.8317 21.6396ZM25.219 12.3834H18.8757L19.5649 9.28404H26.0453L25.219 12.3834Z"
    />
    <path
        d="M102.475 67.9313L102.342 67.5192L102.475 66.8324V63.0687H105.769L106.101 63.2747L105.662 64.2363L105.063 64.1676H103.672V64.9231H105.462V65.9876H104.677L103.672 65.919V66.8324H105.662L106.454 67.4918L106.061 67.9313H102.475Z"
    />
    <path
        d="M81.9505 68C81.7065 68 81.4758 67.9771 81.2584 67.9313C81.041 67.881 80.8525 67.8214 80.6928 67.7527C80.5331 67.6841 80.4155 67.62 80.3401 67.5604V66.331C80.553 66.4547 80.8214 66.5714 81.1453 66.6813C81.4691 66.7866 81.8285 66.8393 82.2233 66.8393C82.383 66.8393 82.5006 66.8187 82.576 66.7775C82.6558 66.7317 82.6957 66.6538 82.6957 66.544C82.6957 66.4249 82.607 66.3265 82.4296 66.2486C82.2566 66.1662 81.9815 66.0655 81.6044 65.9464C81.3116 65.8503 81.061 65.745 80.8525 65.6305C80.6484 65.5114 80.4909 65.3649 80.38 65.1909C80.2736 65.0124 80.2203 64.7857 80.2203 64.511C80.2203 64.2271 80.2913 63.9707 80.4333 63.7418C80.5752 63.5128 80.797 63.332 81.0987 63.1992C81.4004 63.0664 81.7863 63 82.2566 63C82.3985 63 82.5493 63.0069 82.7091 63.0206C82.8732 63.0298 83.0041 63.0435 83.1017 63.0618L83.8536 63.6319L83.5941 64.4698L82.017 64.0234C81.8351 64.0234 81.6998 64.0623 81.6111 64.1401C81.5268 64.2179 81.4847 64.3118 81.4847 64.4217C81.4847 64.5545 81.5579 64.6598 81.7043 64.7376C81.8506 64.8155 82.0614 64.8933 82.3364 64.9712C82.7712 65.0948 83.1083 65.2321 83.3479 65.3832C83.5874 65.5343 83.756 65.706 83.8536 65.8984C83.9512 66.0861 84 66.299 84 66.5371C84 66.9766 83.8292 67.3315 83.4876 67.6016C83.146 67.8672 82.6336 68 81.9505 68Z"
    />
</svg>
