<svg width="150" height="56" viewBox="0 0 150 56" fill="#a6adba" xmlns="http://www.w3.org/2000/svg">
    <path
        d="M145.235 50.6716H134.069L134.457 48.8856H144.016L144.956 45.157H135.613L136.063 43.3086H147.218L148.534 38.0658H131.592L129.472 39.861L125.632 54.204L126.839 55.9544H143.937L145.235 50.6716Z"
    />
    <path
        d="M127.693 38.1106L110.577 38.0411L108.499 39.8224L106.713 46.875L108.151 48.915H117.303L116.907 50.6978H105.609L104.267 55.9645H121.28L123.394 54.2017L125.542 45.9438L124.705 45.1346H114.555L114.962 43.2707H126.337L127.693 38.1106Z"
    />
    <path
        d="M89.8629 37.7948L85.0868 55.9552H101.902L103.201 50.6816H94.0046L97.5474 37.7948H89.8629Z"
    />
    <path
        d="M65.6016 55.7313H80.8919L83.1512 53.9431L87.3561 37.8095H80.0394L76.5583 50.3905H72.7904L76.0934 37.7948H68.7528L64.4391 54.1894L65.6016 55.7313Z"
    />
    <path
        d="M64.6704 37.7948L47.712 38.0473L42.9235 55.9614H50.413L51.8198 50.7241H61.0675L63.6167 48.7976L66.0602 39.7529L64.6704 37.7948ZM57.1671 45.1277H53.3383L53.7322 43.3526H57.6635L57.1671 45.1277Z"
    />
    <path
        d="M14.6793 40.2826L10.6285 55.9544H17.9546L21.5197 43.3796H25.2536L21.8565 55.9761H29.3275L32.6991 43.3147L36.5364 43.3827L33.1809 55.9583H40.6388L44.957 39.7421L43.7437 38.0473H17.1444"
    />
    <path d="M1 56H8.23662C9.85692 49.9828 11.4518 44.0591 13.0605 38.0828H5.84317" />
    <path
        d="M149 0.0347382H120.155C119.009 0.873267 116.126 3.26763 116.126 3.26763L113.034 15.6734L115.219 18.5248L131.308 18.5519L130.377 21.6983H111.227L108.812 30.9059H137.601L141.576 27.7834L145.224 13.777L144.19 12.4335H126.425C126.687 11.3078 126.98 10.27 127.36 9.26474H146.468C147.431 6.26502 148.139 3.19582 149.002 0.0339661L149 0.0347382Z"
    />
    <path
        d="M113.212 -6.07199e-06H84.3668C83.2206 0.838523 80.3377 3.23289 80.3377 3.23289L77.2458 15.6386L79.4304 18.4901L95.5193 18.5171L94.5881 21.6635H75.439L73.0232 30.8711H101.812L105.788 27.7487L109.435 13.7423L108.402 12.3988H90.6368C90.8989 11.273 91.1911 10.2353 91.5719 9.22999H110.679C111.642 6.23028 112.351 3.16108 113.213 -0.000778198L113.212 -6.07199e-06Z"
    />
    <path fill-rule="evenodd" clip-rule="evenodd"
        d="M48.348 -0.000778198H74.2481L76.4812 2.90321L69.0302 30.8685H56.4817L59.4599 21.6239L52.6273 21.6239L49.7483 30.8685L37.1492 30.8685L44.4383 3.35975L48.348 -0.000778198ZM52.3602 11.5936L52.4276 11.3037C52.4525 11.1967 52.5343 11.1227 52.6275 11.1227H55.6079L57.2513 5.15547C57.3184 4.91202 57.6141 4.93627 57.6525 5.18837L58.6024 11.2772L59.2435 14.7548L60.297 11.5721L60.3752 11.2928C60.4031 11.1913 60.4826 11.1227 60.5723 11.1227H63.5727L64.2263 8.67674C64.2896 8.43954 64.5746 8.45041 64.6251 8.69194L65.1757 11.3253L65.482 12.5646L65.797 11.5762L65.8724 11.2962C65.9005 11.192 65.9829 11.1223 66.0748 11.1249L72.9619 11.4418L72.9489 11.4424L72.959 11.4427L72.9238 11.4439L72.9672 11.4456L72.9543 11.4461L72.9643 11.4464L72.9207 11.4476L72.4524 11.4681L66.2482 11.7889L65.6675 14.1572C65.6087 14.397 65.3223 14.3931 65.268 14.1518L64.6453 11.3329L64.4628 10.6338L64.215 11.6032L64.1936 11.7022C64.1712 11.8132 64.0879 11.8916 63.9919 11.8916H61.0381L59.3057 17.7823C59.2352 18.0221 58.9431 17.994 58.9057 17.7439L57.901 11.2764L57.3482 8.26596L56.2487 11.5715L56.2069 11.7202C56.1794 11.8223 56.0995 11.8916 56.0094 11.8916H53.0896L52.3666 14.2583C52.2967 14.4871 52.0203 14.4701 51.9706 14.2339L51.3588 11.3262L51.1103 10.3265L50.7199 11.5505C50.7184 11.5553 50.7167 11.56 50.7149 11.5647L50.7146 11.5658C50.6866 11.6695 50.6049 11.7391 50.5134 11.7371L43.6153 11.4663L50.334 11.1252L50.9143 8.74613C50.9728 8.50627 51.2592 8.50967 51.3137 8.75088L51.8974 11.3358L52.1603 12.3209L52.3602 11.5936Z"
    />
    <path
        d="M40.6026 2.93408L38.324 0.024704H9.48463L1.33765 30.8843H29.8748L34.2139 27.0592L36.4146 18.4654L34.0343 15.4224L38.1128 12.1996L40.6026 2.93408ZM22.8317 21.6396H16.3166L17.1853 18.5364H23.7151L22.8317 21.6396ZM25.219 12.3834H18.8757L19.5649 9.28404H26.0453L25.219 12.3834Z"
    />
</svg>
