<svg width="30" height="30" viewBox="0 0 30 30" fill="#a6adba" xmlns="http://www.w3.org/2000/svg">
    <path
        d="M13.8462 13.8462C7.98829 19.704 0 30 0 30C0 30 10.296 22.0117 16.1538 16.1538C22.0117 10.296 30 0 30 0C30 0 19.704 7.98829 13.8462 13.8462Z"
    />
    <path
        d="M16.1538 13.8462C10.296 7.98829 2.52881e-06 5.83572e-06 2.52881e-06 5.83572e-06C2.52881e-06 5.83572e-06 7.98829 10.296 13.8462 16.1538C19.704 22.0117 30 30 30 30C30 30 22.0117 19.704 16.1538 13.8462Z"
    />
    <path
        d="M16.1538 13.8462C10.296 7.98829 2.52881e-06 5.83572e-06 2.52881e-06 5.83572e-06C2.52881e-06 5.83572e-06 7.98829 10.296 13.8462 16.1538C19.704 22.0117 30 30 30 30C30 30 22.0117 19.704 16.1538 13.8462Z"
    />
</svg>
