<svg width="106" height="94" viewBox="0 0 106 94" fill="none" xmlns="http://www.w3.org/2000/svg">
    <path fill-rule="evenodd" clip-rule="evenodd"
        d="M75.3974 58.8002C79.682 46.1984 72.7482 31.9574 59.4335 27.2185L63.5029 15.2498C82.8407 22.1326 93.6843 43.0014 87.5387 62.3347L87.8306 61.4762C87.8306 61.4762 93.4294 64.6427 88.6987 78.5564C83.7131 93.2197 77.8936 91.4753 77.6641 91.4002L65.7545 87.1613L75.3974 58.8002ZM27.7518 41.8422C32.0365 29.2404 46.1119 22.477 59.4266 27.216L63.4959 15.2474C44.1581 8.36465 22.9966 17.8422 16.0878 36.9039L16.3797 36.0453C16.3797 36.0453 10.0689 34.973 5.33815 48.8867C0.352567 63.55 5.97376 65.8776 6.19928 65.9644L18.1089 70.2033L27.7518 41.8422ZM30.2254 46.3701C31.5261 46.8331 32.2203 48.2681 31.7759 49.5754L25.2649 68.7251C24.8204 70.0324 23.4056 70.7168 22.1048 70.2538C20.804 69.7908 20.1099 68.3558 20.5543 67.0486L27.0653 47.8988C27.5098 46.5916 28.9246 45.9072 30.2254 46.3701ZM72.2687 63.9876C72.7131 62.6803 72.0189 61.2453 70.7182 60.7823C69.4174 60.3194 68.0026 61.0038 67.5581 62.311L61.0471 81.4608C60.6027 82.768 61.2968 84.203 62.5976 84.666C63.8984 85.129 65.3132 84.4446 65.7577 83.1373L72.2687 63.9876Z"
        fill="#a6adba" />
</svg>
