<svg width="32" height="32" viewBox="0 0 32 20" fill="#a6adba" xmlns="http://www.w3.org/2000/svg">
    <path
        d="M16 0C9.75161 -4.76837e-07 0 2 0 2C0 2 9.75161 4 16 4C22.2484 4 32 2 32 2C32 2 22.2484 4.76837e-07 16 0Z"
    />
    <path
        d="M16 8C10.7129 8 0 10 0 10C0 10 10.7129 12 16 12C21.2871 12 27.0769 10 27.0769 10C27.0769 10 21.2871 8 16 8Z"
    />
    <path
        d="M16 16C9.75161 16 0 18 0 18C0 18 9.75161 20 16 20C22.2484 20 32 18 32 18C32 18 22.2484 16 16 16Z"
    />
</svg>
