<svg width="510" height="68" viewBox="0 0 510 68" fill="none" xmlns="http://www.w3.org/2000/svg">
    <path fill-rule="evenodd" clip-rule="evenodd"
        d="M30.0262 66.5082C46.4951 66.5082 59.1159 52.8916 59.1159 37.0081C59.1159 21.1245 46.4951 7.50793 30.0262 7.50793C13.5574 7.50793 0.936523 21.1245 0.936523 37.0081C0.936523 52.8916 13.5574 66.5082 30.0262 66.5082ZM44.1159 37.0081C44.1159 45.0163 37.8078 51.5082 30.0262 51.5082C22.2447 51.5082 15.9365 45.0163 15.9365 37.0081C15.9365 28.9999 22.2447 22.5079 30.0262 22.5079C37.8078 22.5079 44.1159 28.9999 44.1159 37.0081ZM30.0258 45.4077C34.5335 45.4077 38.1877 41.6471 38.1877 37.0081C38.1877 32.369 34.5335 28.6084 30.0258 28.6084C25.5181 28.6084 21.8639 32.369 21.8639 37.0081C21.8639 41.6471 25.5181 45.4077 30.0258 45.4077Z"
        fill="#E4E4E4" />
    <path fill-rule="evenodd" clip-rule="evenodd"
        d="M180.609 63.6006C197.174 63.6006 209.48 49.7588 209.48 34.1005C209.48 18.4421 197.174 4.60034 180.609 4.60034C164.044 4.60034 151.738 18.4421 151.738 34.1005C151.738 49.7588 164.044 63.6006 180.609 63.6006ZM194.48 34.1005C194.48 42.1087 188.27 48.6006 180.609 48.6006C172.948 48.6006 166.738 42.1087 166.738 34.1005C166.738 26.0923 172.948 19.6003 180.609 19.6003C188.27 19.6003 194.48 26.0923 194.48 34.1005ZM180.609 42.5002C185.047 42.5002 188.644 38.7395 188.644 34.1005C188.644 29.4614 185.047 25.7008 180.609 25.7008C176.171 25.7008 172.574 29.4614 172.574 34.1005C172.574 38.7395 176.171 42.5002 180.609 42.5002Z"
        fill="#E4E4E4" />
    <path
        d="M56.5957 36.948H78.4667L83.2792 20.5938L88.8804 42.1125L98.4998 0.846008L105.884 67.3549L117.338 22.0612L123.793 49.3621L128.755 28.7377L131.305 36.948H157.368"
        stroke="#E4E4E4" stroke-width="5" />
    <path fill-rule="evenodd" clip-rule="evenodd"
        d="M330.485 63.6006C347.05 63.6006 359.356 49.7588 359.356 34.1005C359.356 18.4421 347.05 4.60034 330.485 4.60034C313.92 4.60034 301.614 18.4421 301.614 34.1005C301.614 49.7588 313.92 63.6006 330.485 63.6006ZM344.356 34.1005C344.356 42.1087 338.146 48.6006 330.485 48.6006C322.824 48.6006 316.614 42.1087 316.614 34.1005C316.614 26.0923 322.824 19.6003 330.485 19.6003C338.146 19.6003 344.356 26.0923 344.356 34.1005ZM330.485 42.5002C334.923 42.5002 338.52 38.7395 338.52 34.1005C338.52 29.4614 334.923 25.7008 330.485 25.7008C326.047 25.7008 322.45 29.4614 322.45 34.1005C322.45 38.7395 326.047 42.5002 330.485 42.5002Z"
        fill="#E4E4E4" />
    <path
        d="M206.472 36.948H228.343L233.155 20.5938L238.756 42.1125L248.376 0.846008L255.76 67.3549L267.214 22.0612L273.669 49.3621L278.631 28.7377L281.181 36.948H307.244"
        stroke="#E4E4E4" stroke-width="5" />
    <path fill-rule="evenodd" clip-rule="evenodd"
        d="M480.361 63.6006C496.926 63.6006 509.232 49.7588 509.232 34.1005C509.232 18.4421 496.926 4.60034 480.361 4.60034C463.796 4.60034 451.49 18.4421 451.49 34.1005C451.49 49.7588 463.796 63.6006 480.361 63.6006ZM494.232 34.1005C494.232 42.1087 488.022 48.6006 480.361 48.6006C472.7 48.6006 466.49 42.1087 466.49 34.1005C466.49 26.0923 472.7 19.6003 480.361 19.6003C488.022 19.6003 494.232 26.0923 494.232 34.1005ZM480.361 42.5002C484.799 42.5002 488.396 38.7395 488.396 34.1005C488.396 29.4614 484.799 25.7008 480.361 25.7008C475.923 25.7008 472.326 29.4614 472.326 34.1005C472.326 38.7395 475.923 42.5002 480.361 42.5002Z"
        fill="#E4E4E4" />
    <path
        d="M356.348 36.948H378.219L383.031 20.5938L388.632 42.1125L398.252 0.846008L405.636 67.3549L417.09 22.0612L423.545 49.3621L428.507 28.7377L431.057 36.948H457.12"
        stroke="#E4E4E4" stroke-width="5" />
</svg>