<svg width="668" height="559" viewBox="0 0 668 559" fill="none" xmlns="http://www.w3.org/2000/svg">
    <g filter="url(#filter0_d_375_2303)">
        <path fill-rule="evenodd" clip-rule="evenodd"
            d="M191.367 47.4527C164.692 40.3131 137.268 56.1467 130.113 82.818L101.72 188.664C94.5649 215.335 110.39 242.744 137.065 249.884L179.707 261.297L191.921 459.555C193.619 487.117 217.34 508.087 244.902 506.392L520.157 489.472C547.719 487.778 568.686 464.061 566.988 436.499L550.815 174.006C549.117 146.444 525.397 125.475 497.835 127.169L332.703 137.32L332.773 137.059C339.927 110.388 324.103 82.9788 297.427 75.8393L191.367 47.4527Z"
            fill="#96405F" />
    </g>
    <defs>
        <filter id="filter0_d_375_2303" x="0" y="-54.26" width="667.084" height="660.748"
            filterUnits="userSpaceOnUse" color-interpolation-filters="sRGB">
            <feFlood flood-opacity="0" result="BackgroundImageFix" />
            <feColorMatrix in="SourceAlpha" type="matrix"
                values="0 0 0 0 0 0 0 0 0 0 0 0 0 0 0 0 0 0 127 0" result="hardAlpha" />
            <feOffset />
            <feGaussianBlur stdDeviation="50" />
            <feComposite in2="hardAlpha" operator="out" />
            <feColorMatrix type="matrix"
                values="0 0 0 0 0.529412 0 0 0 0 0.466667 0 0 0 0 0.647059 0 0 0 0.37 0" />
            <feBlend mode="normal" in2="BackgroundImageFix" result="effect1_dropShadow_375_2303" />
            <feBlend mode="normal" in="SourceGraphic" in2="effect1_dropShadow_375_2303"
                result="shape" />
        </filter>
    </defs>
</svg>